<svg xmlns="http://www.w3.org/2000/svg" xmlns:xlink="http://www.w3.org/1999/xlink" width="207" height="199" viewBox="0 0 207 199">
  <defs>
    <clipPath id="clip-path">
      <rect id="Rectangle_6873" data-name="Rectangle 6873" width="207" height="199" transform="translate(2365 1135)" fill="#de7a7a" opacity="0.7"/>
    </clipPath>
    <clipPath id="clip-path-2">
      <rect id="Rectangle_15" data-name="Rectangle 15" width="213.536" height="218.62" fill="none"/>
    </clipPath>
    <clipPath id="clip-path-3">
      <rect id="Rectangle_16" data-name="Rectangle 16" width="123.789" height="123.789" fill="none"/>
    </clipPath>
  </defs>
  <g id="Mask_Group_10" data-name="Mask Group 10" transform="translate(-2365 -1135)" clip-path="url(#clip-path)">
    <g id="Group_11503" data-name="Group 11503" transform="translate(925.41 71.233)">
      <rect id="Rectangle_13" data-name="Rectangle 13" width="207.788" height="5.747" transform="translate(1439 1063.241)" fill="#242f3d"/>
      <rect id="Rectangle_14" data-name="Rectangle 14" width="207.788" height="194.083" transform="translate(1439 1068.988)" fill="#fff"/>
      <g id="Group_11371" data-name="Group 11371" transform="translate(1436.126 1047.767)">
        <g id="Group_11370" data-name="Group 11370" clip-path="url(#clip-path-2)">
          <path id="Path_64" data-name="Path 64" d="M147.085,118.22a6.736,6.736,0,0,0,2.166.743,11.334,11.334,0,0,0,2.909.309,8.922,8.922,0,0,0,2.661-.371,7.448,7.448,0,0,0,2.1-1.052,4.512,4.512,0,0,0,1.362-1.671,5.13,5.13,0,0,0,.5-2.228,4.558,4.558,0,0,0-.867-2.661,5.736,5.736,0,0,0-2.909-1.795l-2.661-.867a5.465,5.465,0,0,1-2.1-1.052,2,2,0,0,1,.309-3.033,4.824,4.824,0,0,1,2.538-.557,8.752,8.752,0,0,1,3.652.743,2.567,2.567,0,0,0,.743.248c.309,0,.433-.186.433-.619v-.743a.924.924,0,0,0-.186-.619,1.461,1.461,0,0,0-.557-.5,2.428,2.428,0,0,0-.8-.309c-.309-.124-.681-.186-1.052-.309a7.425,7.425,0,0,0-1.238-.186,4.634,4.634,0,0,0-1.3-.124,9.4,9.4,0,0,0-2.352.309,6.6,6.6,0,0,0-1.981.99,5.453,5.453,0,0,0-1.362,1.547,3.928,3.928,0,0,0-.5,2.1,4.394,4.394,0,0,0,.928,2.723,5.5,5.5,0,0,0,3.033,1.919l2.723.867a4.935,4.935,0,0,1,1.919.99,1.722,1.722,0,0,1,.5,1.3,2.018,2.018,0,0,1-.99,1.795,5.025,5.025,0,0,1-2.785.619,9.114,9.114,0,0,1-2.228-.248,8.369,8.369,0,0,1-2.1-.681,4.27,4.27,0,0,1-.5-.186.785.785,0,0,0-.371-.062c-.309,0-.433.186-.433.619v.928a1.807,1.807,0,0,0,.124.557,2.062,2.062,0,0,0,.681.557" transform="translate(-81.609 -56.666)" fill="#252f3e"/>
          <path id="Path_65" data-name="Path 65" d="M65.176,109.059a10.982,10.982,0,0,0-1.981-.124,6.965,6.965,0,0,0-4.642,1.485,5.4,5.4,0,0,0-.371,7.551,5.053,5.053,0,0,0,3.776,1.362,7.037,7.037,0,0,0,5.57-2.6,9.313,9.313,0,0,0,.557,1.114,4.675,4.675,0,0,0,.681.867.756.756,0,0,0,.557.248.988.988,0,0,0,.5-.186l1.176-.8a.749.749,0,0,0,.371-.557,1.574,1.574,0,0,0-.124-.433,8.555,8.555,0,0,1-.619-1.362,6.229,6.229,0,0,1-.186-1.671v-6.189a6.283,6.283,0,0,0-1.547-4.642c-1.052-1.052-2.661-1.547-4.952-1.547a11.49,11.49,0,0,0-2.971.371,11.628,11.628,0,0,0-2.352.867,1.131,1.131,0,0,0-.5.371c-.124.124-.124.371-.124.681v.928c0,.371.124.619.371.619a.673.673,0,0,0,.309-.062c.124-.062.371-.124.681-.248a12.835,12.835,0,0,1,2.043-.619,7.69,7.69,0,0,1,2.043-.248,4.508,4.508,0,0,1,3.095.867,4.045,4.045,0,0,1,.867,3.033v1.362c-.8-.186-1.485-.309-2.228-.433m2.166,3.342a6.054,6.054,0,0,1-.186,1.609,2.693,2.693,0,0,1-.619,1.176,3.8,3.8,0,0,1-1.795,1.176,5.871,5.871,0,0,1-1.981.371,2.386,2.386,0,0,1-2.661-2.661,2.637,2.637,0,0,1,.928-2.166,4.4,4.4,0,0,1,2.785-.743c.557,0,1.176.062,1.795.124a14.4,14.4,0,0,1,1.733.309Z" transform="translate(-31.7 -56.666)" fill="#252f3e"/>
        </g>
      </g>
      <g id="Group_11373" data-name="Group 11373" transform="translate(1458.895 1047.767)">
        <g id="Group_11372" data-name="Group 11372" clip-path="url(#clip-path-3)">
          <path id="Path_66" data-name="Path 66" d="M96.4,118.535a2.016,2.016,0,0,0,.371.743,1.075,1.075,0,0,0,.743.186h1.609a1.075,1.075,0,0,0,.743-.186,2.015,2.015,0,0,0,.371-.743l2.909-12.193,2.971,12.193a1.058,1.058,0,0,0,.371.743,1.19,1.19,0,0,0,.743.186h1.609a1.32,1.32,0,0,0,.743-.186,1.375,1.375,0,0,0,.371-.743l4.58-14.607a2.523,2.523,0,0,0,.124-.433c0-.124.062-.186.062-.309,0-.309-.124-.433-.433-.433h-1.733a1.075,1.075,0,0,0-.743.186,2.015,2.015,0,0,0-.371.743l-3.28,12.688-3.033-12.75a1.058,1.058,0,0,0-.371-.743,1.19,1.19,0,0,0-.743-.186h-1.547a1.075,1.075,0,0,0-.743.186,2.016,2.016,0,0,0-.371.743l-2.971,12.5-3.157-12.5a2.016,2.016,0,0,0-.371-.743,1.075,1.075,0,0,0-.743-.186H92.253c-.309,0-.433.124-.433.433a3.038,3.038,0,0,0,.186.743Z" transform="translate(-73.994 -57.29)" fill="#252f3e"/>
          <path id="Path_67" data-name="Path 67" d="M102,155.181a55.556,55.556,0,0,1-49.516-3.095c-.681-.433-1.238.309-.619.867a41.679,41.679,0,0,0,28.1,10.708c7.737,0,16.773-2.414,23.025-7.056.928-.743.062-1.857-.99-1.424" transform="translate(-51.552 -84.776)" fill="#f90"/>
        </g>
      </g>
      <g id="Group_11375" data-name="Group 11375" transform="translate(1436.126 1047.767)">
        <g id="Group_11374" data-name="Group 11374" clip-path="url(#clip-path-2)">
          <path id="Path_68" data-name="Path 68" d="M156.324,151.211c-.557.371-.433.928.124.867,1.981-.248,6.5-.8,7.242.248.8.99-.867,5.2-1.609,7.118-.248.557.248.8.8.371,3.342-2.785,4.209-8.665,3.528-9.47-.681-.928-6.561-1.609-10.089.867" transform="translate(-87.012 -83.406)" fill="#f90"/>
          <path id="Path_69" data-name="Path 69" d="M213.028,118.063a.227.227,0,0,1-.248-.248V107.6a.227.227,0,0,1,.248-.248h.309c.186,0,.248.062.248.248l.062.619a5.236,5.236,0,0,1,1.362-.8,3.331,3.331,0,0,1,1.362-.248,2.8,2.8,0,0,1,2.29,1.052,4.462,4.462,0,0,1,.866,2.847,4.84,4.84,0,0,1-.866,2.971,2.912,2.912,0,0,1-2.414,1.114,3.841,3.841,0,0,1-2.538-1.052v3.714a.227.227,0,0,1-.248.248Zm3.095-3.714a2.192,2.192,0,0,0,1.857-.8,3.871,3.871,0,0,0,.619-2.414q0-3.157-2.414-3.157a3.85,3.85,0,0,0-2.476.99v4.395a5.706,5.706,0,0,0,1.176.8,7.426,7.426,0,0,0,1.238.186" transform="translate(-118.709 -59.79)" fill="#252f3e"/>
          <path id="Path_70" data-name="Path 70" d="M233.41,115.014a2.241,2.241,0,0,1-1.671-.619,2.013,2.013,0,0,1-.619-1.609,2.16,2.16,0,0,1,.743-1.733,2.987,2.987,0,0,1,2.043-.619,7.237,7.237,0,0,1,2.166.371v-1.238a1.573,1.573,0,0,0-.433-1.3,2.18,2.18,0,0,0-1.424-.371,6.93,6.93,0,0,0-2.166.371c-.062,0-.186.062-.248.062-.124,0-.124-.062-.124-.186v-.309a.227.227,0,0,1,.062-.186l.124-.124a6.864,6.864,0,0,1,2.538-.5,3.024,3.024,0,0,1,1.981.557,2.066,2.066,0,0,1,.619,1.671v5.323a.227.227,0,0,1-.248.248h-.309a.227.227,0,0,1-.248-.248l-.062-.619a4.1,4.1,0,0,1-2.723,1.052m.124-.743a3.148,3.148,0,0,0,1.238-.248,9.291,9.291,0,0,0,1.362-.681v-1.857a7.242,7.242,0,0,0-1.981-.248c-1.424,0-2.1.557-2.1,1.609a1.456,1.456,0,0,0,.371,1.052,1.513,1.513,0,0,0,1.114.371" transform="translate(-128.941 -59.712)" fill="#252f3e"/>
          <path id="Path_71" data-name="Path 71" d="M249.847,115.2a.227.227,0,0,1-.248-.248v-7.118a.227.227,0,0,1,.248-.248h.309c.186,0,.248.062.248.248l.061.867a2.741,2.741,0,0,1,1.115-.867,2.771,2.771,0,0,1,1.238-.248h.371a.227.227,0,0,1,.248.248v.371c0,.062,0,.062-.062.124,0,.062-.061.062-.123.062h-.557a2.769,2.769,0,0,0-1.237.248,3.976,3.976,0,0,0-1.052.8v5.509a.227.227,0,0,1-.248.248Z" transform="translate(-139.251 -60.024)" fill="#252f3e"/>
          <path id="Path_72" data-name="Path 72" d="M263.1,112.531a1.713,1.713,0,0,1-1.857-1.857v-5.013h-1.176a.227.227,0,0,1-.248-.248v-.124a.227.227,0,0,1,.062-.186c0-.062.061-.062.186-.062l1.237-.124.124-1.981c0-.062.062-.124.062-.186.062-.062.062-.062.186-.062h.248a.226.226,0,0,1,.247.248v1.981h2.167a.226.226,0,0,1,.247.248v.309a.226.226,0,0,1-.247.248h-2.167v5.013a1.12,1.12,0,0,0,.248.867,1.21,1.21,0,0,0,.867.248,2.55,2.55,0,0,0,.743-.062c.124,0,.186-.062.248-.062h.123a.164.164,0,0,1,.186.186v.248a.285.285,0,0,1-.186.309c-.371,0-.8.062-1.3.062" transform="translate(-144.953 -57.29)" fill="#252f3e"/>
          <path id="Path_73" data-name="Path 73" d="M274.488,114.891a.227.227,0,0,1-.248-.248v-7.118a.227.227,0,0,1,.248-.248h.31c.186,0,.248.062.248.248l.062.619a5.291,5.291,0,0,1,1.547-.8,4.906,4.906,0,0,1,1.547-.309,2.271,2.271,0,0,1,1.672.557,2.331,2.331,0,0,1,.557,1.733v5.261a.227.227,0,0,1-.248.248h-.433a.227.227,0,0,1-.248-.248v-4.828a2.178,2.178,0,0,0-.371-1.424,1.456,1.456,0,0,0-1.176-.433,4.856,4.856,0,0,0-2.909.99V114.7a.227.227,0,0,1-.248.248h-.31Z" transform="translate(-152.998 -59.712)" fill="#252f3e"/>
          <path id="Path_74" data-name="Path 74" d="M296.31,115.154a3.285,3.285,0,0,1-2.661-.99,4.338,4.338,0,0,1-.928-3.033,4.21,4.21,0,0,1,.928-2.909,3.31,3.31,0,0,1,2.538-1.052,2.623,2.623,0,0,1,2.1.8,3.026,3.026,0,0,1,.743,2.228,4.093,4.093,0,0,1-.062.928.266.266,0,0,1-.248.248h-5.075a3.553,3.553,0,0,0,.681,2.352,2.721,2.721,0,0,0,2.1.743,5.452,5.452,0,0,0,2.043-.371.615.615,0,0,1,.248-.062c.062,0,.062,0,.124.062,0,.062.062.062.062.124v.248a.286.286,0,0,1-.186.309,10.34,10.34,0,0,1-2.414.371m1.857-4.518v-.5a2.379,2.379,0,0,0-.5-1.609,2.06,2.06,0,0,0-1.547-.557c-1.609,0-2.414.867-2.538,2.661Z" transform="translate(-163.308 -59.79)" fill="#252f3e"/>
          <path id="Path_75" data-name="Path 75" d="M311.307,115.2a.227.227,0,0,1-.248-.248v-7.118a.227.227,0,0,1,.248-.248h.309c.186,0,.248.062.248.248l.061.867a2.741,2.741,0,0,1,1.115-.867,2.771,2.771,0,0,1,1.238-.248h.371a.227.227,0,0,1,.248.248v.371c0,.062,0,.062-.062.124,0,.062-.061.062-.123.062h-.557a2.769,2.769,0,0,0-1.237.248,3.977,3.977,0,0,0-1.052.8v5.509a.227.227,0,0,1-.248.248Z" transform="translate(-173.539 -60.024)" fill="#252f3e"/>
          <path id="Path_76" data-name="Path 76" d="M213.028,152.629a.227.227,0,0,1-.248-.248v-7.056a.227.227,0,0,1,.248-.248h.309c.186,0,.248.062.248.248l.062.619a5.28,5.28,0,0,1,1.547-.8,4.905,4.905,0,0,1,1.547-.309,2.27,2.27,0,0,1,1.671.557,2.332,2.332,0,0,1,.557,1.733v5.261a.227.227,0,0,1-.248.248h-.433a.227.227,0,0,1-.248-.248v-4.89a2.181,2.181,0,0,0-.371-1.424,1.456,1.456,0,0,0-1.176-.433,4.855,4.855,0,0,0-2.909.99v5.818a.227.227,0,0,1-.248.248h-.309Z" transform="translate(-118.709 -80.8)" fill="#252f3e"/>
          <path id="Path_77" data-name="Path 77" d="M234.85,152.954a3.285,3.285,0,0,1-2.661-.99,4.338,4.338,0,0,1-.928-3.033,4.21,4.21,0,0,1,.928-2.909,3.31,3.31,0,0,1,2.538-1.052,2.622,2.622,0,0,1,2.1.8,3.026,3.026,0,0,1,.743,2.228,4.1,4.1,0,0,1-.062.928.266.266,0,0,1-.248.248h-5.075a3.554,3.554,0,0,0,.681,2.352,2.722,2.722,0,0,0,2.1.743,5.452,5.452,0,0,0,2.043-.371.616.616,0,0,1,.248-.062c.062,0,.062,0,.124.062,0,.062.062.062.062.124v.248a.286.286,0,0,1-.186.309,9.856,9.856,0,0,1-2.414.371m1.857-4.58v-.5a2.379,2.379,0,0,0-.5-1.609,2.06,2.06,0,0,0-1.547-.557c-1.609,0-2.414.867-2.538,2.661Z" transform="translate(-129.019 -80.878)" fill="#252f3e"/>
          <path id="Path_78" data-name="Path 78" d="M250.92,150.253a1.713,1.713,0,0,1-1.856-1.857v-5.075h-1.176a.227.227,0,0,1-.248-.248v-.124a.226.226,0,0,1,.062-.186c0-.062.061-.062.186-.062l1.237-.124.124-1.981c0-.062.061-.124.061-.186.062-.062.062-.062.186-.062h.248a.227.227,0,0,1,.247.248v1.981h2.167a.227.227,0,0,1,.247.248v.309a.226.226,0,0,1-.247.248h-2.167V148.4a1.12,1.12,0,0,0,.248.867,1.211,1.211,0,0,0,.867.248,2.552,2.552,0,0,0,.743-.062c.124,0,.186-.062.247-.062h.124a.164.164,0,0,1,.186.186v.248a.286.286,0,0,1-.186.309,7.723,7.723,0,0,1-1.3.124" transform="translate(-138.158 -78.301)" fill="#252f3e"/>
          <path id="Path_79" data-name="Path 79" d="M262.683,152.863a.34.34,0,0,1-.309-.186l-2.352-6.994a.471.471,0,0,1-.061-.248c0-.062.061-.124.186-.124h.5c.124,0,.186.062.247.186l2.043,6.375,1.795-6.375a.286.286,0,0,1,.309-.186h.557a.34.34,0,0,1,.309.186l1.795,6.375,2.1-6.437c.062-.124.124-.186.248-.186h.433c.124,0,.186.062.186.124a.468.468,0,0,1-.062.248l-2.476,6.994a.286.286,0,0,1-.309.186h-.5a.34.34,0,0,1-.309-.186l-1.795-6.375-1.795,6.375a.286.286,0,0,1-.31.186h-.433Z" transform="translate(-145.031 -81.035)" fill="#252f3e"/>
          <path id="Path_80" data-name="Path 80" d="M289.809,152.876a3.354,3.354,0,0,1-2.6-1.052,4.275,4.275,0,0,1-.928-2.971,4.494,4.494,0,0,1,.928-2.971,3.737,3.737,0,0,1,5.2,0,4.273,4.273,0,0,1,.928,2.971,4.492,4.492,0,0,1-.928,2.971,3.353,3.353,0,0,1-2.6,1.052m0-.8c1.733,0,2.6-1.052,2.6-3.219s-.867-3.218-2.6-3.218-2.6,1.052-2.6,3.218.867,3.219,2.6,3.219" transform="translate(-159.715 -80.8)" fill="#252f3e"/>
          <path id="Path_81" data-name="Path 81" d="M306.828,152.941a.227.227,0,0,1-.248-.248v-7.056a.227.227,0,0,1,.248-.248h.31c.186,0,.248.062.248.248l.061.867a2.737,2.737,0,0,1,1.114-.867,2.773,2.773,0,0,1,1.238-.248h.371a.226.226,0,0,1,.247.248v.371c0,.062,0,.062-.062.124s-.061.062-.124.062h-.557a2.768,2.768,0,0,0-1.237.248,3.975,3.975,0,0,0-1.052.8v5.509a.227.227,0,0,1-.248.248h-.31Z" transform="translate(-171.04 -81.113)" fill="#252f3e"/>
          <path id="Path_82" data-name="Path 82" d="M318.448,148.411a.227.227,0,0,1-.248-.248V137.518a.227.227,0,0,1,.248-.248h.433a.227.227,0,0,1,.248.248V144.2l3.59-3.219a.455.455,0,0,1,.371-.124h.557c.124,0,.186.062.186.124s-.062.124-.186.248l-3.652,3.219,3.961,3.652c.062.062.124.124.124.186,0,.124-.061.124-.186.124h-.619a.472.472,0,0,1-.309-.124l-3.838-3.59v3.466a.227.227,0,0,1-.248.248Z" transform="translate(-177.523 -76.583)" fill="#252f3e"/>
          <path id="Path_83" data-name="Path 83" d="M58.623,266.785l-.7-2.238h-3.35l-.663,2.238H51.687l3.454-9.8h2.335l3.454,9.8Zm-3.592-3.765H57.49l-1.243-4.1Zm11.853,3.765-.173-.636a2.992,2.992,0,0,1-2.079.794,2.8,2.8,0,0,1-1.568-.442,2.956,2.956,0,0,1-1.057-1.3,4.929,4.929,0,0,1-.373-2,4.375,4.375,0,0,1,.836-2.8,2.673,2.673,0,0,1,2.2-1.057,3.082,3.082,0,0,1,1.941.635v-3.668H68.68v10.473Zm-1.568-1.4a2.392,2.392,0,0,0,1.3-.394v-3.737a2.747,2.747,0,0,0-1.4-.352,1.255,1.255,0,0,0-1.119.56,3.127,3.127,0,0,0-.367,1.692,2.962,2.962,0,0,0,.387,1.686,1.383,1.383,0,0,0,1.2.546m7.159,1.4-2.749-7.233h2.2l1.54,5.381,1.568-5.381h2.134l-2.729,7.233Zm9.882,0-.166-.636a3.506,3.506,0,0,1-1.016.629,2.906,2.906,0,0,1-1.105.235,2.346,2.346,0,0,1-1.679-.594,2.294,2.294,0,0,1-.29-2.777,2.283,2.283,0,0,1,.974-.815,3.512,3.512,0,0,1,1.5-.3,7.028,7.028,0,0,1,1.5.18V262a1.17,1.17,0,0,0-.269-.891,1.489,1.489,0,0,0-.988-.242,8.651,8.651,0,0,0-2.556.435v-1.368a4.986,4.986,0,0,1,1.313-.428,7.859,7.859,0,0,1,1.61-.166,3.181,3.181,0,0,1,2.127.587,2.316,2.316,0,0,1,.677,1.844v5.008Zm-1.706-1.161a1.909,1.909,0,0,0,.725-.152,2.8,2.8,0,0,0,.7-.428v-1.229a7.355,7.355,0,0,0-1.112-.1q-1.237,0-1.237.988a.914.914,0,0,0,.242.677.926.926,0,0,0,.684.242m9.928,1.161v-4.739a1.2,1.2,0,0,0-.256-.85,1.02,1.02,0,0,0-.774-.269A2.872,2.872,0,0,0,88,261.41v5.374H85.937v-7.233h1.7l.2.781a4.348,4.348,0,0,1,2.715-.988,1.9,1.9,0,0,1,2.093,2.093v5.347Zm9.239-.311a3.03,3.03,0,0,1-.919.345,4.952,4.952,0,0,1-1.119.124,3.465,3.465,0,0,1-2.638-.96,4.618,4.618,0,0,1,.048-5.574,3.528,3.528,0,0,1,2.673-1.008,4.145,4.145,0,0,1,1.913.449v1.375a5.532,5.532,0,0,0-1.527-.242,1.914,1.914,0,0,0-1.465.5,2.3,2.3,0,0,0-.463,1.589v.2a2.31,2.31,0,0,0,.456,1.582,1.865,1.865,0,0,0,1.43.5,6.108,6.108,0,0,0,1.61-.256Zm3.016-2.8a1.8,1.8,0,0,0,.56,1.354,2.53,2.53,0,0,0,1.6.414,8.321,8.321,0,0,0,2.2-.352v1.375a4.437,4.437,0,0,1-1.181.394A6.8,6.8,0,0,1,104.6,267a3.637,3.637,0,0,1-2.742-.974,4.763,4.763,0,0,1-.007-5.671,3.353,3.353,0,0,1,2.591-1.008,2.871,2.871,0,0,1,2.155.774,2.988,2.988,0,0,1,.76,2.2,7.07,7.07,0,0,1-.041.711,4.815,4.815,0,0,1-.1.642Zm1.54-2.894a1.457,1.457,0,0,0-1.1.415,1.867,1.867,0,0,0-.456,1.209h2.77v-.242q0-1.381-1.216-1.382m9.45,6.01-.173-.636a2.992,2.992,0,0,1-2.079.794A2.8,2.8,0,0,1,110,266.5a2.958,2.958,0,0,1-1.057-1.3,4.929,4.929,0,0,1-.373-2,4.374,4.374,0,0,1,.836-2.8,2.672,2.672,0,0,1,2.2-1.057,3.083,3.083,0,0,1,1.941.635v-3.668h2.065v10.473Zm-1.568-1.4a2.392,2.392,0,0,0,1.3-.394v-3.737a2.747,2.747,0,0,0-1.4-.352,1.256,1.256,0,0,0-1.119.56,3.135,3.135,0,0,0-.366,1.692,2.962,2.962,0,0,0,.387,1.686,1.384,1.384,0,0,0,1.2.546" transform="translate(-28.836 -142.996)" fill="#535b64"/>
          <path id="Path_84" data-name="Path 84" d="M65.865,322.262q-4.808,0-7.274-2.7t-2.466-7.971q0-5.23,2.556-7.979t7.336-2.756a13.964,13.964,0,0,1,4.269.663.533.533,0,0,1,.27.187.646.646,0,0,1,.09.387v.656q0,.394-.359.394a5.732,5.732,0,0,1-.87-.18,10.783,10.783,0,0,0-1.568-.283,13.381,13.381,0,0,0-1.623-.111q-4.118,0-6.148,2.155T58.045,311.2v.753q0,8.6,7.972,8.6a14.689,14.689,0,0,0,3.848-.512,3.39,3.39,0,0,1,.718-.152q.359,0,.359.393v.657a.662.662,0,0,1-.09.393.56.56,0,0,1-.27.18,14.783,14.783,0,0,1-4.718.753m14.7.117a6.455,6.455,0,0,1-5.147-2.114,8.762,8.762,0,0,1-1.83-5.913,8.668,8.668,0,0,1,1.83-5.885,7.33,7.33,0,0,1,10.286,0,8.649,8.649,0,0,1,1.837,5.885,8.743,8.743,0,0,1-1.837,5.913,6.434,6.434,0,0,1-5.139,2.114m0-1.561q5.2,0,5.2-6.466,0-6.431-5.2-6.431t-5.2,6.431q0,6.466,5.2,6.466M91.9,321.931a.4.4,0,0,1-.456-.449V307.258a.4.4,0,0,1,.456-.449h.6a.446.446,0,0,1,.511.449l.118,1.292a12.264,12.264,0,0,1,3.095-1.616,9.444,9.444,0,0,1,3.157-.573,4.521,4.521,0,0,1,3.35,1.16,4.6,4.6,0,0,1,1.161,3.406v10.555a.4.4,0,0,1-.449.449h-.815a.4.4,0,0,1-.449-.449v-9.83a4.344,4.344,0,0,0-.753-2.839,2.966,2.966,0,0,0-2.4-.891,10.37,10.37,0,0,0-5.858,1.921v11.64a.4.4,0,0,1-.456.449Zm20.44.449a11.94,11.94,0,0,1-2.39-.242,10.3,10.3,0,0,1-2.149-.656.589.589,0,0,1-.359-.6v-.512c0-.244.111-.366.332-.366a1.594,1.594,0,0,1,.283.062q.228.062.857.269a12.165,12.165,0,0,0,3.551.511,4.54,4.54,0,0,0,2.791-.732,2.539,2.539,0,0,0,.967-2.148,1.847,1.847,0,0,0-.587-1.382,5.7,5.7,0,0,0-1.969-1.085l-2.736-1.023q-3.219-1.2-3.219-3.937a3.729,3.729,0,0,1,1.4-3.019,5.545,5.545,0,0,1,3.654-1.16,10.785,10.785,0,0,1,3.937.746.594.594,0,0,1,.359.608v.449q0,.387-.325.387a3.449,3.449,0,0,1-.753-.145,12.923,12.923,0,0,0-3.309-.511,3.986,3.986,0,0,0-2.466.649,2.248,2.248,0,0,0-.843,1.907,2.08,2.08,0,0,0,.587,1.582,7.55,7.55,0,0,0,2.3,1.209l2.4.9a5.743,5.743,0,0,1,2.452,1.547,3.429,3.429,0,0,1,.767,2.273,3.9,3.9,0,0,1-1.492,3.226,6.294,6.294,0,0,1-4.041,1.188m13.2,0a4.481,4.481,0,0,1-3.323-1.167,4.7,4.7,0,0,1-1.153-3.433V307.258a.4.4,0,0,1,.449-.449h.815a.4.4,0,0,1,.449.449v9.8a4.427,4.427,0,0,0,.753,2.874,2.955,2.955,0,0,0,2.376.884,8.361,8.361,0,0,0,2.763-.449,11.83,11.83,0,0,0,2.763-1.478V307.258a.4.4,0,0,1,.456-.449h.808a.4.4,0,0,1,.456.449v14.223a.4.4,0,0,1-.456.449h-.6a.465.465,0,0,1-.512-.449l-.117-1.2a9.891,9.891,0,0,1-5.927,2.1m14.852-.359a2.483,2.483,0,0,1-1.879-.7,2.727,2.727,0,0,1-.677-1.969V300.136a.4.4,0,0,1,.456-.449h.809a.4.4,0,0,1,.456.449v19.176a1.345,1.345,0,0,0,.256.932,1.233,1.233,0,0,0,.912.269,3.388,3.388,0,0,0,.408-.027,3.2,3.2,0,0,1,.373-.028.373.373,0,0,1,.422.422v.566a.436.436,0,0,1-.387.456,4.913,4.913,0,0,1-1.147.118m9.622.09a3.636,3.636,0,0,1-2.708-.947,3.757,3.757,0,0,1-.932-2.749v-10.1H144a.4.4,0,0,1-.456-.456v-.3a.588.588,0,0,1,.09-.359.5.5,0,0,1,.366-.152l2.432-.214.214-3.965a.572.572,0,0,1,.131-.345.432.432,0,0,1,.318-.1h.538a.4.4,0,0,1,.449.449v3.938h4.366a.4.4,0,0,1,.449.449v.6a.4.4,0,0,1-.449.456h-4.366v10.009a2.37,2.37,0,0,0,.525,1.741,2.493,2.493,0,0,0,1.761.511,6.894,6.894,0,0,0,1.534-.152q.332-.055.525-.1a1.384,1.384,0,0,1,.29-.049q.332,0,.332.359v.449q0,.511-.332.636a8.657,8.657,0,0,1-2.708.387m6.794-.179a.4.4,0,0,1-.449-.449V307.258a.4.4,0,0,1,.449-.449h.815a.4.4,0,0,1,.449.449v14.223a.4.4,0,0,1-.449.449Zm.421-18.368a1.253,1.253,0,0,1-.947-.359,1.353,1.353,0,0,1-.345-.967,1.328,1.328,0,0,1,.345-.96,1.426,1.426,0,0,1,1.893,0,1.326,1.326,0,0,1,.345.96,1.351,1.351,0,0,1-.345.967,1.251,1.251,0,0,1-.946.359m6.1,18.368a.4.4,0,0,1-.456-.449V307.258a.4.4,0,0,1,.456-.449h.6a.446.446,0,0,1,.511.449l.118,1.292a12.271,12.271,0,0,1,3.095-1.616,9.446,9.446,0,0,1,3.157-.573,4.521,4.521,0,0,1,3.35,1.16,4.6,4.6,0,0,1,1.161,3.406v10.555a.4.4,0,0,1-.449.449h-.815a.4.4,0,0,1-.449-.449v-9.83a4.343,4.343,0,0,0-.753-2.839,2.966,2.966,0,0,0-2.4-.891,10.369,10.369,0,0,0-5.858,1.921v11.64a.4.4,0,0,1-.456.449Zm21.946,6.556a11.834,11.834,0,0,1-2.466-.256,8.7,8.7,0,0,1-2.107-.712.611.611,0,0,1-.332-.629v-.421q0-.387.332-.387a.749.749,0,0,1,.194.028q.111.028.38.117a12.788,12.788,0,0,0,3.91.691,5.4,5.4,0,0,0,4.1-1.382,6.158,6.158,0,0,0,1.313-4.359v-1.472a9.109,9.109,0,0,1-2.466,1.478,6.979,6.979,0,0,1-2.584.539,5.779,5.779,0,0,1-4.635-2.058,8.186,8.186,0,0,1-1.741-5.457,8.775,8.775,0,0,1,1.727-5.74,5.779,5.779,0,0,1,4.711-2.107,7.2,7.2,0,0,1,5.015,2.01l.124-1.112a.464.464,0,0,1,.511-.449h.6a.4.4,0,0,1,.449.449V321.24a7.427,7.427,0,0,1-1.8,5.395,6.971,6.971,0,0,1-5.229,1.852m.663-8.331a7.547,7.547,0,0,0,4.656-1.921v-8.358a9.117,9.117,0,0,0-2.376-1.485,6.321,6.321,0,0,0-2.432-.47,4.318,4.318,0,0,0-3.627,1.568,7.429,7.429,0,0,0-1.216,4.621,6.905,6.905,0,0,0,1.278,4.5,4.544,4.544,0,0,0,3.716,1.547" transform="translate(-31.312 -167.194)" fill="#535b64"/>
          <path id="Path_85" data-name="Path 85" d="M57.933,393.709a.4.4,0,0,1-.449-.449V373.324a.4.4,0,0,1,.449-.449h6.735a6.167,6.167,0,0,1,4.552,1.685,6.791,6.791,0,0,1,0,8.987,6.165,6.165,0,0,1-4.552,1.685H59.2v8.027a.4.4,0,0,1-.449.449Zm6.673-10.072q4.448,0,4.448-4.566,0-4.6-4.448-4.6H59.2v9.167Zm13.651,10.4a4.527,4.527,0,0,1-3.295-1.188,4.735,4.735,0,0,1,.283-6.625,6.172,6.172,0,0,1,4.1-1.264,14.885,14.885,0,0,1,4.3.691v-2.528a3.412,3.412,0,0,0-.871-2.625,4.211,4.211,0,0,0-2.887-.8,14.361,14.361,0,0,0-4.387.753,1.543,1.543,0,0,1-.456.09q-.3,0-.3-.394v-.477a.659.659,0,0,1,.09-.373.645.645,0,0,1,.3-.228,13.616,13.616,0,0,1,5.022-.933,5.86,5.86,0,0,1,3.924,1.112,4.221,4.221,0,0,1,1.278,3.364V393.26a.4.4,0,0,1-.449.449h-.635a.425.425,0,0,1-.477-.449l-.125-1.292a8.533,8.533,0,0,1-5.409,2.073m.242-1.561a7.455,7.455,0,0,0,2.459-.463,13.811,13.811,0,0,0,2.68-1.313v-3.758a14.947,14.947,0,0,0-3.91-.546q-4.207,0-4.207,3.246a2.8,2.8,0,0,0,.753,2.114,3.106,3.106,0,0,0,2.224.718m11.935,1.229a.4.4,0,0,1-.456-.449V379.037a.4.4,0,0,1,.456-.449H91a.442.442,0,0,1,.512.449l.152,1.748A7.576,7.576,0,0,1,93.9,379a5.677,5.677,0,0,1,2.48-.525q.484,0,.787.028a.428.428,0,0,1,.449.483v.746a.34.34,0,0,1-.09.228.3.3,0,0,1-.242.1c-.161,0-.313,0-.456-.014s-.347-.014-.629-.014a5.626,5.626,0,0,0-2.452.511,6.489,6.489,0,0,0-2.052,1.651V393.26a.4.4,0,0,1-.456.449Zm14.549.18a3.637,3.637,0,0,1-2.708-.946,3.757,3.757,0,0,1-.933-2.749v-10.1H98.974a.4.4,0,0,1-.456-.456v-.3a.591.591,0,0,1,.09-.359.5.5,0,0,1,.366-.152l2.432-.214.214-3.965a.576.576,0,0,1,.131-.346.434.434,0,0,1,.318-.1h.539a.4.4,0,0,1,.449.449v3.937h4.366a.4.4,0,0,1,.449.449v.6a.4.4,0,0,1-.449.456h-4.366V390.1a2.368,2.368,0,0,0,.525,1.741,2.492,2.492,0,0,0,1.761.511,6.918,6.918,0,0,0,1.534-.152c.221-.037.4-.069.525-.1a1.408,1.408,0,0,1,.29-.048q.332,0,.332.359v.449q0,.511-.332.635a8.661,8.661,0,0,1-2.708.387m6.676-.18a.4.4,0,0,1-.456-.449V379.037a.4.4,0,0,1,.456-.449h.6a.447.447,0,0,1,.511.449l.118,1.292a12.277,12.277,0,0,1,3.095-1.616,9.454,9.454,0,0,1,3.157-.573,4.521,4.521,0,0,1,3.35,1.161,4.6,4.6,0,0,1,1.161,3.406V393.26a.4.4,0,0,1-.449.449h-.815a.4.4,0,0,1-.449-.449v-9.83a4.347,4.347,0,0,0-.753-2.839,2.966,2.966,0,0,0-2.4-.891,10.37,10.37,0,0,0-5.858,1.92v11.64a.4.4,0,0,1-.456.449Zm23.023.449a6.847,6.847,0,0,1-5.381-2.024q-1.8-2.031-1.8-6.03a8.657,8.657,0,0,1,1.817-5.872,6.4,6.4,0,0,1,5.1-2.093,5.455,5.455,0,0,1,4.193,1.562,6.317,6.317,0,0,1,1.458,4.476,10.364,10.364,0,0,1-.117,1.81.486.486,0,0,1-.512.449H129.247a6.911,6.911,0,0,0,1.382,4.663,5.359,5.359,0,0,0,4.179,1.5,11.35,11.35,0,0,0,4.117-.753,1.874,1.874,0,0,1,.539-.152.268.268,0,0,1,.214.111.374.374,0,0,1,.09.256v.449a.611.611,0,0,1-.332.629,10.973,10.973,0,0,1-4.753,1.023m3.7-9.1q.028-.422.028-.995a4.58,4.58,0,0,0-1.057-3.274,4.046,4.046,0,0,0-3.088-1.112q-4.753,0-5.022,5.381Zm5.922,8.655a.4.4,0,0,1-.456-.449V379.037a.4.4,0,0,1,.456-.449h.566a.442.442,0,0,1,.512.449l.152,1.748A7.575,7.575,0,0,1,147.776,379a5.677,5.677,0,0,1,2.48-.525q.484,0,.787.028a.428.428,0,0,1,.449.483v.746a.34.34,0,0,1-.09.228.3.3,0,0,1-.242.1c-.161,0-.313,0-.456-.014s-.348-.014-.629-.014a5.626,5.626,0,0,0-2.452.511,6.493,6.493,0,0,0-2.052,1.651V393.26a.4.4,0,0,1-.456.449Z" transform="translate(-32.07 -208.026)" fill="#535b64"/>
        </g>
      </g>
    </g>
  </g>
</svg>
