<svg xmlns="http://www.w3.org/2000/svg" xmlns:xlink="http://www.w3.org/1999/xlink" width="444" height="464" viewBox="0 0 444 464">
  <defs>
    <clipPath id="clip-path">
      <rect id="Rectangle_6908" data-name="Rectangle 6908" width="444" height="464" transform="translate(946 3144)" fill="#fff" stroke="#707070" stroke-width="1" opacity="0.5"/>
    </clipPath>
  </defs>
  <g id="Mask_Group_13" data-name="Mask Group 13" transform="translate(-946 -3144)" clip-path="url(#clip-path)">
    <g id="logo" transform="translate(696.633 2925.707)">
      <circle id="Ellipse_2" data-name="Ellipse 2" cx="8.654" cy="8.654" r="8.654" transform="translate(388.661 269.392)" fill="#00b2d7"/>
      <circle id="Ellipse_3" data-name="Ellipse 3" cx="8.752" cy="8.752" r="8.752" transform="translate(339.628 269.293)" fill="#00b2d7"/>
      <circle id="Ellipse_4" data-name="Ellipse 4" cx="8.752" cy="8.752" r="8.752" transform="translate(339.628 565.325)" fill="#00b2d7"/>
      <circle id="Ellipse_5" data-name="Ellipse 5" cx="8.752" cy="8.752" r="8.752" transform="translate(290.692 269.293)" fill="#00b2d7"/>
      <circle id="Ellipse_6" data-name="Ellipse 6" cx="12.077" cy="12.077" r="12.077" transform="translate(287.368 315.276)" fill="#00b2d7"/>
      <circle id="Ellipse_7" data-name="Ellipse 7" cx="12.077" cy="12.077" r="12.077" transform="translate(287.368 364.584)" fill="#00b2d7"/>
      <circle id="Ellipse_8" data-name="Ellipse 8" cx="12.077" cy="12.077" r="12.077" transform="translate(336.303 315.276)" fill="#00b2d7"/>
      <circle id="Ellipse_9" data-name="Ellipse 9" cx="12.077" cy="12.077" r="12.077" transform="translate(336.303 512.664)" fill="#00b2d7"/>
      <circle id="Ellipse_10" data-name="Ellipse 10" cx="12.077" cy="12.077" r="12.077" transform="translate(287.368 463.199)" fill="#00b2d7"/>
      <circle id="Ellipse_11" data-name="Ellipse 11" cx="12.077" cy="12.077" r="12.077" transform="translate(287.368 413.891)" fill="#00b2d7"/>
      <circle id="Ellipse_12" data-name="Ellipse 12" cx="10.429" cy="10.429" r="10.429" transform="translate(289.016 514.155)" fill="#00b2d7"/>
      <circle id="Ellipse_13" data-name="Ellipse 13" cx="16.874" cy="16.874" r="16.874" transform="translate(478.312 557.203)" fill="#00b2d7"/>
      <circle id="Ellipse_14" data-name="Ellipse 14" cx="16.874" cy="16.874" r="16.874" transform="translate(331.506 458.402)" fill="#00b2d7"/>
      <circle id="Ellipse_15" data-name="Ellipse 15" cx="16.874" cy="16.874" r="16.874" transform="translate(331.506 409.158)" fill="#00b2d7"/>
      <circle id="Ellipse_16" data-name="Ellipse 16" cx="16.874" cy="16.874" r="16.874" transform="translate(331.506 359.786)" fill="#00b2d7"/>
      <circle id="Ellipse_17" data-name="Ellipse 17" cx="16.874" cy="16.874" r="16.874" transform="translate(478.631 359.787)" fill="#00b2d7"/>
      <circle id="Ellipse_18" data-name="Ellipse 18" cx="19.557" cy="19.557" r="19.557" transform="translate(426.497 357.104)" fill="#00b2d7"/>
      <circle id="Ellipse_19" data-name="Ellipse 19" cx="19.557" cy="19.557" r="19.557" transform="translate(426.497 406.475)" fill="#00b2d7"/>
      <circle id="Ellipse_20" data-name="Ellipse 20" cx="19.557" cy="19.557" r="19.557" transform="translate(475.629 406.475)" fill="#00b2d7"/>
      <circle id="Ellipse_21" data-name="Ellipse 21" cx="19.557" cy="19.557" r="19.557" transform="translate(426.497 455.719)" fill="#00b2d7"/>
      <circle id="Ellipse_22" data-name="Ellipse 22" cx="19.557" cy="19.557" r="19.557" transform="translate(475.629 455.719)" fill="#00b2d7"/>
      <circle id="Ellipse_23" data-name="Ellipse 23" cx="19.557" cy="19.557" r="19.557" transform="translate(475.629 505.026)" fill="#00b2d7"/>
      <circle id="Ellipse_24" data-name="Ellipse 24" cx="16.874" cy="16.874" r="16.874" transform="translate(429.18 507.867)" fill="#00b2d7"/>
      <circle id="Ellipse_25" data-name="Ellipse 25" cx="16.874" cy="16.874" r="16.874" transform="translate(429.377 310.479)" fill="#00b2d7"/>
      <circle id="Ellipse_26" data-name="Ellipse 26" cx="16.874" cy="16.874" r="16.874" transform="translate(380.442 310.479)" fill="#00b2d7"/>
      <circle id="Ellipse_27" data-name="Ellipse 27" cx="16.874" cy="16.874" r="16.874" transform="translate(380.442 359.787)" fill="#00b2d7"/>
      <circle id="Ellipse_28" data-name="Ellipse 28" cx="16.874" cy="16.874" r="16.874" transform="translate(380.442 409.094)" fill="#00b2d7"/>
      <circle id="Ellipse_29" data-name="Ellipse 29" cx="16.874" cy="16.874" r="16.874" transform="translate(380.442 458.402)" fill="#00b2d7"/>
      <circle id="Ellipse_30" data-name="Ellipse 30" cx="8.654" cy="8.654" r="8.654" transform="translate(535.687 614.545)" fill="#00b2d7"/>
      <circle id="Ellipse_31" data-name="Ellipse 31" cx="16.874" cy="16.874" r="16.874" transform="translate(527.467 557.017)" fill="#00b2d7"/>
      <circle id="Ellipse_32" data-name="Ellipse 32" cx="16.874" cy="16.874" r="16.874" transform="translate(527.247 507.709)" fill="#00b2d7"/>
      <circle id="Ellipse_33" data-name="Ellipse 33" cx="16.874" cy="16.874" r="16.874" transform="translate(527.247 458.402)" fill="#00b2d7"/>
      <circle id="Ellipse_34" data-name="Ellipse 34" cx="16.874" cy="16.874" r="16.874" transform="translate(527.247 409.094)" fill="#00b2d7"/>
      <circle id="Ellipse_35" data-name="Ellipse 35" cx="6.446" cy="6.446" r="6.446" transform="translate(292.999 616.753)" fill="#00b2d7"/>
      <circle id="Ellipse_36" data-name="Ellipse 36" cx="6.446" cy="6.446" r="6.446" transform="translate(292.999 567.445)" fill="#00b2d7"/>
      <circle id="Ellipse_37" data-name="Ellipse 37" cx="6.446" cy="6.446" r="6.446" transform="translate(341.934 616.753)" fill="#00b2d7"/>
      <circle id="Ellipse_38" data-name="Ellipse 38" cx="8.752" cy="8.752" r="8.752" transform="translate(584.182 614.545)" fill="#00b2d7"/>
      <circle id="Ellipse_39" data-name="Ellipse 39" cx="8.752" cy="8.752" r="8.752" transform="translate(584.182 318.514)" fill="#00b2d7"/>
      <circle id="Ellipse_40" data-name="Ellipse 40" cx="8.752" cy="8.752" r="8.752" transform="translate(633.118 614.545)" fill="#00b2d7"/>
      <circle id="Ellipse_41" data-name="Ellipse 41" cx="12.077" cy="12.077" r="12.077" transform="translate(629.793 561.913)" fill="#00b2d7"/>
      <circle id="Ellipse_42" data-name="Ellipse 42" cx="12.077" cy="12.077" r="12.077" transform="translate(629.793 512.606)" fill="#00b2d7"/>
      <circle id="Ellipse_43" data-name="Ellipse 43" cx="12.077" cy="12.077" r="12.077" transform="translate(580.858 561.913)" fill="#00b2d7"/>
      <circle id="Ellipse_44" data-name="Ellipse 44" cx="12.077" cy="12.077" r="12.077" transform="translate(580.858 364.526)" fill="#00b2d7"/>
      <circle id="Ellipse_45" data-name="Ellipse 45" cx="12.077" cy="12.077" r="12.077" transform="translate(629.793 413.991)" fill="#00b2d7"/>
      <circle id="Ellipse_46" data-name="Ellipse 46" cx="12.077" cy="12.077" r="12.077" transform="translate(629.793 463.298)" fill="#00b2d7"/>
      <circle id="Ellipse_47" data-name="Ellipse 47" cx="10.429" cy="10.429" r="10.429" transform="translate(631.441 366.331)" fill="#00b2d7"/>
      <circle id="Ellipse_48" data-name="Ellipse 48" cx="16.874" cy="16.874" r="16.874" transform="translate(576.061 409.193)" fill="#00b2d7"/>
      <circle id="Ellipse_49" data-name="Ellipse 49" cx="16.874" cy="16.874" r="16.874" transform="translate(576.061 458.437)" fill="#00b2d7"/>
      <circle id="Ellipse_50" data-name="Ellipse 50" cx="16.874" cy="16.874" r="16.874" transform="translate(576.061 507.809)" fill="#00b2d7"/>
      <circle id="Ellipse_51" data-name="Ellipse 51" cx="6.446" cy="6.446" r="6.446" transform="translate(635.424 271.699)" fill="#00b2d7"/>
      <circle id="Ellipse_52" data-name="Ellipse 52" cx="6.446" cy="6.446" r="6.446" transform="translate(635.424 321.007)" fill="#00b2d7"/>
      <circle id="Ellipse_53" data-name="Ellipse 53" cx="6.446" cy="6.446" r="6.446" transform="translate(586.489 271.699)" fill="#00b2d7"/>
    </g>
  </g>
</svg>
