<svg xmlns="http://www.w3.org/2000/svg" width="410.737" height="70.837" viewBox="0 0 410.737 70.837">
  <g id="Group_11377" data-name="Group 11377" transform="translate(0 0)">
    <path id="Path_86" data-name="Path 86" d="M524.945,322.148h6.364l44.36,49.465h.437V322.148h5v67.68h-4.024l-46.652-53.442h-.388v53.442h-5.1Z" transform="translate(-524.945 -320.596)" fill="#333"/>
    <path id="Path_87" data-name="Path 87" d="M644.334,322.148v4.372H608.672v24.2h23.856v4.373H608.672v30.365h35.662v4.372H597.3v-67.68Z" transform="translate(-522.143 -320.596)" fill="#333"/>
    <path id="Path_88" data-name="Path 88" d="M710.737,322.148v4.372H686.249v63.308h-11.37V326.52H650.342v-4.372Z" transform="translate(-520.09 -320.596)" fill="#333"/>
    <path id="Path_89" data-name="Path 89" d="M720.459,322.148h23.419a39.254,39.254,0,0,1,10.712,1.311,22.622,22.622,0,0,1,7.651,3.672,15.5,15.5,0,0,1,4.617,5.589,16.073,16.073,0,0,1,1.554,7.063,14.706,14.706,0,0,1-1.19,5.908,16.217,16.217,0,0,1-3.377,4.958,21.678,21.678,0,0,1-5.248,3.837,28.337,28.337,0,0,1-6.753,2.5l24.632,32.84H763.311L739.8,358.006h-7.968v31.823H720.459Zm11.369,32.459h6.557a23.342,23.342,0,0,0,7.071-1.025,17.356,17.356,0,0,0,5.611-2.889,13,13,0,0,0,5.054-10.52,14.277,14.277,0,0,0-1.07-5.562,12.914,12.914,0,0,0-2.965-4.373,13.481,13.481,0,0,0-4.517-2.839,15.688,15.688,0,0,0-5.734-1.025H731.828Z" transform="translate(-517.375 -320.596)" fill="#333"/>
    <path id="Path_90" data-name="Path 90" d="M816.285,391.491a38.7,38.7,0,0,1-10.058-1.285,38.3,38.3,0,0,1-8.941-3.622,36.931,36.931,0,0,1-7.53-5.613,34.7,34.7,0,0,1-5.781-7.263,35.884,35.884,0,0,1-3.694-8.547,34.377,34.377,0,0,1-1.311-9.528,32.944,32.944,0,0,1,1.311-9.325,34.463,34.463,0,0,1,3.694-8.357,33.806,33.806,0,0,1,5.781-7.07,37.488,37.488,0,0,1,16.471-8.986,41.372,41.372,0,0,1,20.116,0,37.5,37.5,0,0,1,16.469,8.986,33.871,33.871,0,0,1,5.781,7.07,34.511,34.511,0,0,1,3.694,8.357,32.988,32.988,0,0,1,1.312,9.325,34.473,34.473,0,0,1-1.312,9.5,35.8,35.8,0,0,1-3.694,8.573,34.767,34.767,0,0,1-5.781,7.263,36.92,36.92,0,0,1-7.531,5.613,38.312,38.312,0,0,1-8.938,3.622,38.733,38.733,0,0,1-10.058,1.285m0-3.4a21.094,21.094,0,0,0,10.251-2.431,21.829,21.829,0,0,0,7.508-6.753,31.981,31.981,0,0,0,4.614-10.279,50.525,50.525,0,0,0,1.58-13,48.537,48.537,0,0,0-1.58-12.755,30.636,30.636,0,0,0-4.614-10,21.372,21.372,0,0,0-7.508-6.537,21.862,21.862,0,0,0-10.251-2.329,22.335,22.335,0,0,0-10.422,2.329,21.073,21.073,0,0,0-7.507,6.537,30.212,30.212,0,0,0-4.542,10,50.048,50.048,0,0,0-1.53,12.755,52.1,52.1,0,0,0,1.53,13,31.547,31.547,0,0,0,4.542,10.279,20.877,20.877,0,0,0,17.929,9.183" transform="translate(-515.109 -320.654)" fill="#333"/>
    <path id="Path_91" data-name="Path 91" d="M866.3,322.148h6.365l44.359,49.465h.437V322.148h5v67.68H918.44l-46.652-53.442H871.4v53.442h-5.1Z" transform="translate(-511.728 -320.596)" fill="#333"/>
  </g>
</svg>
